<svg width="48" height="42" viewBox="0 0 48 42" fill="none" xmlns="http://www.w3.org/2000/svg">
<path d="M46.9279 16.75C46.9794 16.5656 47.0404 16.3859 47.0841 16.1984C47.0935 16.1609 47.0966 16.1234 47.106 16.0859C47.5524 14.2842 47.5506 12.4005 47.1009 10.5995C46.6512 8.79856 45.7673 7.13516 44.5263 5.75469C43.382 4.216 41.8911 2.96873 40.1746 2.11412C38.458 1.2595 36.5641 0.821595 34.6466 0.835943H34.5654C34.4091 0.835943 34.2341 0.846881 34.0685 0.851569H33.8794C30.5772 1.03377 27.2948 1.47998 24.0638 2.18594L17.0685 1.06876H17.0138C13.682 0.493132 10.2534 1.04286 7.2685 2.63126C5.58692 3.6447 4.14284 5.00778 3.03413 6.62813L2.97006 6.71407L2.931 6.76876C1.46421 8.94464 0.666608 11.5024 0.63662 14.1263C0.606632 16.7502 1.34557 19.3255 2.76225 21.5344C2.73256 21.5875 2.71538 21.6469 2.68725 21.7016C2.55183 21.9725 2.43642 22.2529 2.34194 22.5406C2.29194 22.6969 2.25444 22.8625 2.2185 23.025C2.19038 23.1578 2.16225 23.2891 2.1435 23.4219C2.12422 23.5874 2.11275 23.7537 2.10913 23.9203C2.10913 24.0547 2.0935 24.1859 2.09975 24.3188C2.11069 24.4938 2.131 24.6672 2.15913 24.8406C2.17788 24.9641 2.18725 25.0875 2.21538 25.2094C2.26225 25.4016 2.32475 25.5906 2.39663 25.775C2.43256 25.8734 2.456 25.975 2.49975 26.0719C2.62788 26.3578 2.78413 26.6281 2.9685 26.8813C3.67544 27.8935 4.71855 28.6221 5.91225 28.9375C5.86771 29.6038 5.97861 30.2713 6.23622 30.8874C6.49382 31.5035 6.89107 32.0512 7.39663 32.4875C8.29201 33.272 9.39014 33.7886 10.5654 33.9781C10.8076 34.7641 11.2326 35.4813 11.8044 36.0719C12.5846 36.9178 13.6391 37.4603 14.781 37.6031C15.0529 38.5297 15.5685 39.3672 16.2748 40.025C17.1451 40.8813 18.3107 41.3688 19.531 41.3844C20.4285 41.3801 21.31 41.1467 22.0919 40.7063C23.2544 41.3719 24.6169 41.5969 25.9326 41.3406C26.6231 41.2143 27.2774 40.9375 27.849 40.5301C28.4207 40.1226 28.8957 39.5944 29.2404 38.9828C29.2732 38.9313 29.2919 38.8859 29.3216 38.8344C30.6498 39.1063 32.0326 38.8672 33.1935 38.1656C34.2144 37.5892 34.9917 36.6621 35.381 35.5563C36.7779 35.575 38.131 35.0719 39.1732 34.1422C39.7442 33.643 40.1877 33.0146 40.4666 32.3093C40.7454 31.604 40.8516 30.8422 40.7763 30.0875C40.7763 30.0438 40.7654 30.0094 40.7623 29.9672C41.5777 29.7228 42.3113 29.261 42.8841 28.6313C43.6247 27.8503 44.1015 26.8566 44.2473 25.7902C44.3931 24.7238 44.2005 23.6386 43.6966 22.6875C45.1014 21.0644 46.1642 19.1747 46.8216 17.1313C46.8591 17.0109 46.8904 16.8797 46.9279 16.75ZM44.2529 14.0938C44.1749 14.8794 44.0023 15.6527 43.7388 16.3969L43.6888 16.5531C43.1696 17.9432 42.4207 19.2362 41.4732 20.3781C36.5716 16.1 29.4419 9.85626 28.856 9.29688C28.1792 8.64908 27.2803 8.28461 26.3435 8.27813C26.053 8.27562 25.7637 8.31724 25.4857 8.40157C24.4951 8.71407 22.0607 9.49532 19.9357 10.2844C19.1232 10.5859 18.1951 9.81563 17.9123 9.15938C17.7248 8.76563 17.6935 8.31563 17.8216 7.90001C18.0763 7.43907 18.5044 7.09688 19.0107 6.95001C23.8172 5.26035 28.8391 4.26081 33.9263 3.98126H34.1154C34.2888 3.98126 34.4607 3.96876 34.6201 3.96563C35.7871 3.94644 36.9457 4.16604 38.0247 4.61094C39.6249 5.34034 41.0298 6.43793 42.1248 7.81407C43.1021 8.92019 43.7855 10.2543 44.1123 11.6938L44.1263 11.7656C44.2015 12.1503 44.249 12.5398 44.2685 12.9313C44.2732 13.0578 44.281 13.2172 44.281 13.3578C44.281 13.5844 44.281 13.8094 44.2544 14.0328L44.2529 14.0938ZM5.26069 24.4984C5.24975 24.4313 5.24975 24.3578 5.24975 24.2875C5.23252 24.137 5.23252 23.9849 5.24975 23.8344C5.267 23.7456 5.28943 23.658 5.31694 23.5719C5.34819 23.4328 5.39506 23.2969 5.45131 23.1672C5.50288 23.0734 5.56225 22.9828 5.62788 22.8984C5.72087 22.746 5.83386 22.6068 5.96381 22.4844L5.97319 22.4766L8.91225 19.9844C9.10752 19.834 9.33052 19.7236 9.5685 19.6595C9.80648 19.5954 10.0548 19.5788 10.2991 19.6107C10.5435 19.6427 10.7792 19.7225 10.9927 19.8456C11.2063 19.9687 11.3934 20.1326 11.5435 20.3281C11.6528 20.4881 11.7237 20.6712 11.7508 20.863C11.7779 21.0549 11.7605 21.2504 11.6998 21.4344L7.09038 25.925C6.77218 25.9307 6.45795 25.8538 6.17834 25.7018C5.89874 25.5498 5.66332 25.3279 5.49506 25.0578C5.37895 24.8897 5.29913 24.6992 5.26069 24.4984ZM9.19194 28.2406L14.2498 23.3125L14.2263 23.2891C14.5109 23.1473 14.8324 23.0971 15.1466 23.1453C15.5482 23.2547 15.9107 23.4797 16.1873 23.7922C16.4623 24.0266 16.6466 24.3484 16.7091 24.7047C16.7324 25.0656 16.6533 25.4258 16.481 25.7438C16.4651 25.7873 16.4515 25.8316 16.4404 25.8766L11.3294 30.8563C10.9708 30.8719 10.613 30.8102 10.2804 30.6754C9.94769 30.5406 9.64789 30.3359 9.40131 30.075C9.1984 29.8194 9.07122 29.512 9.03421 29.1878C8.9972 28.8635 9.05184 28.5354 9.19194 28.2406ZM13.5435 33.0609L18.8248 27.9219C19.1607 27.9891 19.4685 28.1609 19.7029 28.4125C20.0268 28.6961 20.2522 29.0753 20.3466 29.4953C20.3713 29.676 20.3634 29.8596 20.3232 30.0375L15.756 34.4828C15.4513 34.5394 15.1372 34.5174 14.8433 34.419C14.5495 34.3206 14.2855 34.149 14.0763 33.9203C13.8323 33.6808 13.6495 33.386 13.5435 33.0609ZM18.4451 37.7672C18.1625 37.5176 17.9393 37.208 17.7919 36.8609L22.106 32.6625C22.4138 32.7641 22.6951 32.9313 22.931 33.1516C23.1513 33.3275 23.3176 33.562 23.4107 33.8281C23.4637 34.0251 23.4637 34.2327 23.4107 34.4297C23.2155 35.06 22.8903 35.6423 22.456 36.1391L21.2747 37.5141H21.2841C21.2451 37.5391 21.2013 37.55 21.1654 37.5781C20.7249 37.9802 20.158 38.2161 19.5623 38.2453C19.1416 38.2382 18.7406 38.0666 18.4451 37.7672ZM25.4357 38.2469C25.2044 38.2828 24.9716 38.2938 24.7388 38.2781L24.8544 38.1438L24.8919 38.0984L24.8935 38.1C25.3671 37.5147 25.7679 36.874 26.0873 36.1922L26.7779 36.9234C26.7213 37.0707 26.6534 37.2133 26.5748 37.35C26.4634 37.5747 26.3034 37.7717 26.1063 37.9269C25.9093 38.082 25.6802 38.1913 25.4357 38.2469ZM35.4357 32.4266L32.656 29.3469C32.4173 29.0676 32.0878 28.8815 31.7254 28.8212C31.363 28.761 30.9909 28.8305 30.6747 29.0175C30.3585 29.2046 30.1184 29.4971 29.9967 29.8437C29.8749 30.1904 29.8793 30.5688 30.0091 30.9125C30.0815 31.1074 30.192 31.2859 30.3341 31.4375L32.5779 33.9375C32.5623 34.0969 32.5294 34.2547 32.4794 34.4063C32.3493 34.8489 32.0524 35.2236 31.6513 35.4516C31.1628 35.772 30.57 35.8928 29.9951 35.7891L28.1201 33.7984C27.9176 33.5855 27.6589 33.4345 27.374 33.3629C27.0891 33.2912 26.7897 33.3019 26.5107 33.3938C26.4865 33.242 26.4536 33.0918 26.4123 32.9438C26.1543 32.1273 25.6745 31.3986 25.0263 30.8391C24.5723 30.4248 24.052 30.0894 23.4873 29.8469C23.4981 29.5562 23.4798 29.2652 23.4326 28.9781C23.2311 27.9141 22.6965 26.9417 21.906 26.2016C21.3314 25.6197 20.621 25.1902 19.8388 24.9516C19.8466 24.7422 19.8388 24.5344 19.8154 24.3266C19.6693 23.2742 19.1663 22.3039 18.3904 21.5781C17.6838 20.8385 16.7762 20.3219 15.7794 20.0922C15.4404 20.0267 15.0946 20.0031 14.7498 20.0219C14.6271 19.4415 14.3791 18.8949 14.0232 18.4203C13.6221 17.8994 13.1221 17.4627 12.552 17.1352C11.9819 16.8077 11.3528 16.5959 10.7007 16.5119C10.0486 16.4279 9.38633 16.4733 8.75181 16.6455C8.1173 16.8177 7.52298 17.1134 7.00288 17.5156L6.94819 17.5594L5.0185 19.1844C4.11368 17.5367 3.68074 15.6713 3.7673 13.7935C3.85386 11.9157 4.45656 10.0981 5.50913 8.54063L5.54194 8.49376C6.39746 7.21815 7.51965 6.14341 8.831 5.34376C11.2231 4.09793 13.9623 3.68502 16.6154 4.17032L17.3404 4.28594C16.2692 4.7686 15.4137 5.6292 14.9373 6.70313C14.707 7.29235 14.5974 7.92184 14.6151 8.55422C14.6329 9.1866 14.7775 9.80897 15.0404 10.3844C15.5084 11.5164 16.3813 12.4336 17.4888 12.9571C18.5964 13.4805 19.8592 13.5727 21.031 13.2156C23.0935 12.4516 25.4591 11.6844 26.3435 11.4047C26.4138 11.4024 26.4838 11.4159 26.5481 11.4443C26.6125 11.4727 26.6697 11.5153 26.7154 11.5688C27.4794 12.2875 36.7029 20.3609 40.556 23.7188L40.8685 23.9859C41.1111 24.3789 41.2149 24.842 41.163 25.301C41.1112 25.7599 40.9068 26.1882 40.5826 26.5172C40.3599 26.7572 40.0675 26.9211 39.7466 26.9859L37.0388 24.2406C36.7441 23.9601 36.3519 23.805 35.9451 23.8082C35.5382 23.8113 35.1485 23.9724 34.8581 24.2575C34.5678 24.5426 34.3996 24.9293 34.389 25.336C34.3784 25.7428 34.5262 26.1377 34.8013 26.4375L37.3888 29.0594C37.3998 29.1063 37.4123 29.1531 37.4263 29.1984L37.4451 29.2469C37.5624 29.5804 37.6333 29.9284 37.656 30.2813C37.6994 30.5491 37.6763 30.8236 37.5889 31.0805C37.5014 31.3374 37.3523 31.5689 37.1544 31.7547C36.6873 32.1922 36.0701 32.4328 35.431 32.4266H35.4357Z" fill="#DAAE91"/>
</svg>
