<svg width="36" height="43" viewBox="0 0 36 43" fill="none" xmlns="http://www.w3.org/2000/svg">
<path d="M10.4565 20.8412C14.5928 23.0289 18.9369 22.2817 21.8506 22.2817C19.6009 17.0954 15.6167 15.3757 12.2965 14.344C8.97632 13.3122 3 12.9683 3 12.9683C3 12.9683 6.32018 18.6536 10.4565 20.8412Z" fill="#DAAE91"/>
<path d="M22.257 41.6349C22.257 36.1321 23.2057 34.1243 23.5851 31.3729C23.9646 28.6215 24.1003 27.468 21.8506 22.2817M21.8506 22.2817C18.9369 22.2817 14.5928 23.0289 10.4565 20.8412C6.32018 18.6536 3 12.9683 3 12.9683C3 12.9683 8.97632 13.3122 12.2965 14.344C15.6167 15.3757 19.6009 17.0954 21.8506 22.2817Z" stroke="#DAAE91" stroke-width="2.5"/>
<path d="M34.3995 11.0968C33.7148 12.4839 32.3452 15.2581 24.2313 20.1128C22.7586 13.1774 25.288 8.53485 28.9214 4.85484C32.3452 1.3871 34.2581 0.693548 35.9988 0C35.9988 1.58234 36.1114 7.62903 34.3995 11.0968Z" fill="#61808B"/>
</svg>
